<svg width="75" height="40" viewBox="0 0 75 40" fill="none" xmlns="http://www.w3.org/2000/svg">
<rect y="5" width="75" height="30" rx="15" fill="url(#paint0_linear_30_640)"/>
<path d="M32 17.641C32.1 17.141 31.7 16.541 31.2 16.541L25.5 15.741L22.9 10.541C22.8 10.341 22.7 10.241 22.5 10.141C22 9.84095 21.4 10.041 21.1 10.541L18.6 15.741L12.9 16.541C12.6 16.541 12.4 16.641 12.3 16.841C11.9 17.241 11.9 17.841 12.3 18.241L16.4 22.241L15.4 27.941C15.4 28.141 15.4 28.341 15.5 28.541C15.8 29.041 16.4 29.241 16.9 28.941L22 26.241L27.1 28.941C27.2 29.041 27.4 29.041 27.6 29.041C27.7 29.041 27.7 29.041 27.8 29.041C28.3 28.941 28.7 28.441 28.6 27.841L27.6 22.141L31.7 18.141C31.9 18.041 32 17.841 32 17.641Z" fill="#F3F3FD"/>
<path d="M47.744 23.776V21.984H46.32V14.304H43.744L38.448 21.984V23.776H44.384V26H46.32V23.776H47.744ZM40.624 21.984L44.384 16.512V21.984H40.624ZM50.4138 26.192C51.1178 26.192 51.7098 25.616 51.7098 24.928C51.7098 24.224 51.1178 23.648 50.4138 23.648C49.7098 23.648 49.1178 24.224 49.1178 24.928C49.1178 25.616 49.7098 26.192 50.4138 26.192ZM57.22 26.192C59.828 26.192 61.604 24.464 61.604 21.936C61.604 19.632 60.052 18.048 57.716 18.048C56.916 18.048 56.212 18.256 55.652 18.624L56.276 16.192H60.9V14.304H54.804L53.364 20.432L55.172 20.816C55.588 20.208 56.404 19.76 57.3 19.76C58.708 19.76 59.524 20.688 59.524 22.048C59.524 23.472 58.644 24.368 57.268 24.368C55.972 24.368 55.188 23.584 55.188 22.256H53.156C53.156 24.624 54.772 26.192 57.22 26.192Z" fill="url(#paint1_linear_30_640)"/>
<defs>
<linearGradient id="paint0_linear_30_640" x1="-5.83832" y1="-6.76471" x2="154.96" y2="36.4855" gradientUnits="userSpaceOnUse">
<stop stop-color="#3A8EF6"/>
<stop offset="1" stop-color="#6F3AFA"/>
</linearGradient>
<linearGradient id="paint1_linear_30_640" x1="36.0539" y1="-15.6863" x2="93.2722" y2="-11.8387" gradientUnits="userSpaceOnUse">
<stop stop-color="#F3F3FD"/>
<stop offset="1" stop-color="#F3F3FD"/>
</linearGradient>
</defs>
</svg>
