<svg width="329" height="85" viewBox="0 0 329 85" fill="none" xmlns="http://www.w3.org/2000/svg">
<g filter="url(#filter0_di_80_3241)">
<circle cx="286.207" cy="37.2074" r="16.2074" fill="url(#paint0_linear_80_3241)"/>
</g>
<rect x="282.685" y="28.0466" width="7.04668" height="18.3214" rx="1.057" fill="white"/>
<rect x="295.368" y="33.6838" width="7.04668" height="18.3214" rx="1.057" transform="rotate(90 295.368 33.6838)" fill="white"/>
<path d="M10.3295 70V57.1205H22.6903V70H29.6919V38.0175H22.6903V50.6376H10.3295V38.0175H3.32791V70H10.3295ZM33.6971 59.1519C33.6971 65.9806 38.7106 70.5186 45.6257 70.5186C52.4977 70.5186 57.5111 65.9806 57.5111 59.1519C57.5111 52.3232 52.4977 47.7419 45.6257 47.7419C38.7106 47.7419 33.6971 52.3232 33.6971 59.1519ZM40.3962 59.1087C40.3962 55.8672 42.5139 53.7062 45.6257 53.7062C48.6943 53.7062 50.8121 55.8672 50.8121 59.1087C50.8121 62.3933 48.6943 64.5543 45.6257 64.5543C42.5139 64.5543 40.3962 62.3933 40.3962 59.1087ZM59.1656 63.1713C59.1656 67.5365 62.7529 70.5619 68.4579 70.5619C74.0764 70.5619 78.0094 67.7526 78.0094 63.1281C78.0094 59.6705 76.0645 58.0282 72.5205 57.2502L68.5011 56.3858C66.9884 56.0401 66.1672 55.4782 66.1672 54.4842C66.1672 53.3172 67.1181 52.5393 68.6307 52.5393C70.2299 52.5393 71.1375 53.5333 71.1375 55.0028H77.4476C77.4476 50.6376 73.9468 47.6987 68.9333 47.6987C63.7469 47.6987 59.9004 50.2918 59.9004 54.7867C59.9004 58.59 61.8453 60.3188 65.8215 61.1832L69.7977 62.0476C71.3968 62.3933 71.7426 63.0849 71.7426 63.7332C71.7426 64.8569 70.7917 65.5916 68.7172 65.5916C66.6859 65.5916 65.5622 64.684 65.4757 63.1713H59.1656ZM80.8389 80.3727H87.4948V67.839C88.7481 69.4814 91.5142 70.6051 94.4963 70.6051C100.936 70.6051 104.653 65.678 104.653 58.8493C104.653 51.891 100.461 47.6987 94.4531 47.6987C91.3845 47.6987 88.6617 49.0385 87.4515 51.0266L87.1058 48.3902H80.8389V80.3727ZM87.538 59.1951C87.538 55.9536 89.699 53.7926 92.8108 53.7926C95.9658 53.7926 97.9539 55.9968 97.9539 59.1951C97.9539 62.3933 95.9658 64.5975 92.8108 64.5975C89.699 64.5975 87.538 62.4366 87.538 59.1951ZM111.121 45.0191C113.195 45.0191 114.881 43.3335 114.881 41.2157C114.881 39.098 113.195 37.4556 111.121 37.4556C109.003 37.4556 107.317 39.098 107.317 41.2157C107.317 43.3335 109.003 45.0191 111.121 45.0191ZM107.836 70H114.492V48.3902H107.836V70ZM127.567 70V53.9223H131.673V48.3902H127.567V41.6911H120.911V48.3902H116.805V53.9223H120.911V70H127.567ZM140.542 70.5619C143.784 70.5619 146.636 69.1356 147.328 67.1475L147.76 70H153.638V57.3799C153.638 51.1995 150.094 47.6987 143.827 47.6987C137.646 47.6987 133.627 50.8969 133.627 55.7807H139.159C139.159 53.8359 140.672 52.7554 143.481 52.7554C145.858 52.7554 147.155 53.8791 147.155 55.9968V56.3426L141.104 56.818C135.918 57.207 133.108 59.6705 133.108 63.6467C133.108 67.8822 135.961 70.5619 140.542 70.5619ZM142.876 65.6348C140.845 65.6348 139.894 64.9001 139.894 63.3442C139.894 61.9611 140.931 61.3129 143.827 61.0535L147.198 60.751V61.9179C147.198 64.3814 145.426 65.6348 142.876 65.6348ZM164.419 70V37.4124H157.763V70H164.419ZM172.049 45.0191C174.123 45.0191 175.809 43.3335 175.809 41.2157C175.809 39.098 174.123 37.4556 172.049 37.4556C169.931 37.4556 168.245 39.098 168.245 41.2157C168.245 43.3335 169.931 45.0191 172.049 45.0191ZM168.764 70H175.42V48.3902H168.764V70ZM177.733 48.3902V53.9223H180.715V70H187.371V53.9223H192.558V48.3902H187.371V46.6614C187.371 44.803 187.976 43.3767 190.699 43.3767H192.558V37.6717C191.52 37.4988 190.483 37.4124 189.575 37.4124C184.087 37.4124 180.715 40.2217 180.715 46.6614V48.3902H177.733ZM193.173 80.3727C194.469 80.7617 195.982 80.9778 197.581 80.9778C201.385 80.9778 203.805 79.1193 205.62 74.7109L216.598 48.3902H209.683L204.453 62.2637L199.742 48.3902H192.611L201.298 70.7347L200.909 71.772C200.045 74.1059 199.094 74.7974 196.847 74.7974H193.173V80.3727ZM218.535 70.5619C220.653 70.5619 222.511 68.7899 222.511 66.6721C222.511 64.5111 220.653 62.7391 218.535 62.7391C216.331 62.7391 214.559 64.5111 214.559 66.6721C214.559 68.7899 216.331 70.5619 218.535 70.5619ZM240.538 48.3902V59.6273C240.538 63.1713 239.371 64.6408 236.518 64.6408C233.795 64.6408 232.585 63.0849 232.585 59.5408V48.3902H225.929V61.9611C225.929 67.2772 228.955 70.5619 233.882 70.5619C236.475 70.5619 239.154 69.3517 240.494 67.5797L240.926 70H247.193V48.3902H240.538ZM249.562 63.1713C249.562 67.5365 253.149 70.5619 258.854 70.5619C264.472 70.5619 268.405 67.7526 268.405 63.1281C268.405 59.6705 266.461 58.0282 262.916 57.2502L258.897 56.3858C257.384 56.0401 256.563 55.4782 256.563 54.4842C256.563 53.3172 257.514 52.5393 259.027 52.5393C260.626 52.5393 261.533 53.5333 261.533 55.0028H267.844C267.844 50.6376 264.343 47.6987 259.329 47.6987C254.143 47.6987 250.296 50.2918 250.296 54.7867C250.296 58.59 252.241 60.3188 256.217 61.1832L260.194 62.0476C261.793 62.3933 262.139 63.0849 262.139 63.7332C262.139 64.8569 261.188 65.5916 259.113 65.5916C257.082 65.5916 255.958 64.684 255.872 63.1713H249.562Z" fill="url(#paint1_linear_80_3241)"/>
<defs>
<filter id="filter0_di_80_3241" x="244.338" y="0.740797" width="83.7384" height="83.7381" filterUnits="userSpaceOnUse" color-interpolation-filters="sRGB">
<feFlood flood-opacity="0" result="BackgroundImageFix"/>
<feColorMatrix in="SourceAlpha" type="matrix" values="0 0 0 0 0 0 0 0 0 0 0 0 0 0 0 0 0 0 127 0" result="hardAlpha"/>
<feOffset dy="5.40245"/>
<feGaussianBlur stdDeviation="12.8308"/>
<feComposite in2="hardAlpha" operator="out"/>
<feColorMatrix type="matrix" values="0 0 0 0 0.0862745 0 0 0 0 0.470588 0 0 0 0 0.94902 0 0 0 0.2 0"/>
<feBlend mode="normal" in2="BackgroundImageFix" result="effect1_dropShadow_80_3241"/>
<feBlend mode="normal" in="SourceGraphic" in2="effect1_dropShadow_80_3241" result="shape"/>
<feColorMatrix in="SourceAlpha" type="matrix" values="0 0 0 0 0 0 0 0 0 0 0 0 0 0 0 0 0 0 127 0" result="hardAlpha"/>
<feOffset dy="5.40245"/>
<feGaussianBlur stdDeviation="2.70123"/>
<feComposite in2="hardAlpha" operator="arithmetic" k2="-1" k3="1"/>
<feColorMatrix type="matrix" values="0 0 0 0 0 0 0 0 0 0 0 0 0 0 0 0 0 0 0.12 0"/>
<feBlend mode="normal" in2="shape" result="effect2_innerShadow_80_3241"/>
</filter>
<linearGradient id="paint0_linear_80_3241" x1="267.477" y1="8.28834" x2="341.148" y2="16.2146" gradientUnits="userSpaceOnUse">
<stop stop-color="#3A8EF6"/>
<stop offset="1" stop-color="#6F3AFA"/>
</linearGradient>
<linearGradient id="paint1_linear_80_3241" x1="-21.018" y1="1.25489" x2="475.248" y2="249.807" gradientUnits="userSpaceOnUse">
<stop stop-color="#3A8EF6"/>
<stop offset="1" stop-color="#6F3AFA"/>
</linearGradient>
</defs>
</svg>
