<svg width="268" height="87" viewBox="0 0 268 87" fill="none" xmlns="http://www.w3.org/2000/svg">
<g filter="url(#filter0_di_100_3659)">
<circle cx="225.207" cy="37.2074" r="16.2074" fill="url(#paint0_linear_100_3659)"/>
</g>
<rect x="221.685" y="28.0468" width="7.04668" height="18.3214" rx="1.057" fill="white"/>
<rect x="234.368" y="33.684" width="7.04668" height="18.3214" rx="1.057" transform="rotate(90 234.368 33.684)" fill="white"/>
<path d="M10.3295 74.2844V63.0905H15.7319L20.5293 74.2844H28.1792L22.5606 61.5779C26.1047 59.7626 27.8767 56.8237 27.8767 52.6746C27.8767 46.062 23.4683 42.3019 15.6887 42.3019H3.32791V74.2844H10.3295ZM10.3295 48.5255H15.6887C18.8005 48.5255 20.4861 49.995 20.4861 52.6746C20.4861 55.3974 18.7141 56.9534 15.6455 56.9534H10.3295V48.5255ZM40.77 74.8463C46.691 74.8463 50.9698 71.7777 51.7477 66.9803H45.6538C45.1784 68.5362 43.4064 69.4438 40.8996 69.4438C37.9607 69.4438 36.3616 68.104 35.9726 65.2515L51.6613 65.1651V63.4795C51.6613 56.4347 47.4258 51.9831 40.6403 51.9831C34.1141 51.9831 29.5761 56.694 29.5761 63.4363C29.5761 70.0921 34.2438 74.8463 40.77 74.8463ZM40.6835 57.3855C43.3631 57.3855 45.0487 58.855 45.0487 61.1457H36.059C36.5777 58.5525 38.0471 57.3855 40.6835 57.3855ZM60.6425 74.2844H67.2119L76.2448 52.6746H69.3297L66.434 60.238C65.3535 63.0473 64.4027 65.8566 64.1433 67.11C63.9705 66.1159 63.1061 63.3931 62.0256 60.238L59.3892 52.6746H52.2147L60.6425 74.2844ZM82.2699 49.3035C84.3445 49.3035 86.03 47.6179 86.03 45.5001C86.03 43.3824 84.3445 41.74 82.2699 41.74C80.1522 41.74 78.4666 43.3824 78.4666 45.5001C78.4666 47.6179 80.1522 49.3035 82.2699 49.3035ZM78.9852 74.2844H85.641V52.6746H78.9852V74.2844ZM100.661 74.8463C106.582 74.8463 110.861 71.7777 111.639 66.9803H105.545C105.07 68.5362 103.298 69.4438 100.791 69.4438C97.852 69.4438 96.2528 68.104 95.8638 65.2515L111.553 65.1651V63.4795C111.553 56.4347 107.317 51.9831 100.532 51.9831C94.0054 51.9831 89.4673 56.694 89.4673 63.4363C89.4673 70.0921 94.1351 74.8463 100.661 74.8463ZM100.575 57.3855C103.254 57.3855 104.94 58.855 104.94 61.1457H95.9503C96.4689 58.5525 97.9384 57.3855 100.575 57.3855ZM119.28 74.2844H125.763L127.838 67.5422C129.221 63.0041 129.61 61.3185 129.783 60.4109C129.912 61.3185 130.474 63.8685 131.555 67.4125L133.629 74.2844H139.81L147.373 52.6746H140.328L138.254 59.7194C138.038 60.4974 137 64.3007 136.741 65.8566C136.525 64.4736 135.488 60.4541 135.272 59.7194L133.24 52.6746H126.412L124.207 59.7194C123.257 62.7448 123.041 63.566 122.652 65.8566C122.306 63.6956 121.83 61.5779 121.312 59.7194L119.324 52.6746H112.322L119.28 74.2844ZM165.528 48.3526C168.856 48.3526 171.795 49.8221 172.616 53.1932H179.963C179.228 46.2781 173.351 41.7833 165.701 41.7833C155.803 41.7833 149.364 48.7416 149.364 58.3796C149.364 68.1905 155.631 74.7598 164.577 74.7598C168.38 74.7598 171.838 73.42 173.567 71.3887L173.956 74.2844H179.963V55.9161H164.923V62.0533H173.394C173.091 65.3812 170.757 68.2337 165.485 68.2337C160.385 68.2337 156.754 65.0354 156.754 58.5957C156.754 52.4153 159.736 48.3526 165.528 48.3526ZM183.757 63.4363C183.757 70.265 188.771 74.8031 195.686 74.8031C202.558 74.8031 207.571 70.265 207.571 63.4363C207.571 56.6076 202.558 52.0263 195.686 52.0263C188.771 52.0263 183.757 56.6076 183.757 63.4363ZM190.456 63.3931C190.456 60.1516 192.574 57.9906 195.686 57.9906C198.754 57.9906 200.872 60.1516 200.872 63.3931C200.872 66.6778 198.754 68.8388 195.686 68.8388C192.574 68.8388 190.456 66.6778 190.456 63.3931Z" fill="url(#paint1_linear_100_3659)"/>
<defs>
<filter id="filter0_di_100_3659" x="183.338" y="0.740797" width="83.7384" height="83.738" filterUnits="userSpaceOnUse" color-interpolation-filters="sRGB">
<feFlood flood-opacity="0" result="BackgroundImageFix"/>
<feColorMatrix in="SourceAlpha" type="matrix" values="0 0 0 0 0 0 0 0 0 0 0 0 0 0 0 0 0 0 127 0" result="hardAlpha"/>
<feOffset dy="5.40245"/>
<feGaussianBlur stdDeviation="12.8308"/>
<feComposite in2="hardAlpha" operator="out"/>
<feColorMatrix type="matrix" values="0 0 0 0 0.0862745 0 0 0 0 0.470588 0 0 0 0 0.94902 0 0 0 0.2 0"/>
<feBlend mode="normal" in2="BackgroundImageFix" result="effect1_dropShadow_100_3659"/>
<feBlend mode="normal" in="SourceGraphic" in2="effect1_dropShadow_100_3659" result="shape"/>
<feColorMatrix in="SourceAlpha" type="matrix" values="0 0 0 0 0 0 0 0 0 0 0 0 0 0 0 0 0 0 127 0" result="hardAlpha"/>
<feOffset dy="5.40245"/>
<feGaussianBlur stdDeviation="2.70123"/>
<feComposite in2="hardAlpha" operator="arithmetic" k2="-1" k3="1"/>
<feColorMatrix type="matrix" values="0 0 0 0 0 0 0 0 0 0 0 0 0 0 0 0 0 0 0.12 0"/>
<feBlend mode="normal" in2="shape" result="effect2_innerShadow_100_3659"/>
</filter>
<linearGradient id="paint0_linear_100_3659" x1="206.477" y1="8.28834" x2="280.148" y2="16.2146" gradientUnits="userSpaceOnUse">
<stop stop-color="#3A8EF6"/>
<stop offset="1" stop-color="#6F3AFA"/>
</linearGradient>
<linearGradient id="paint1_linear_100_3659" x1="-16.2695" y1="5.53932" x2="401.453" y2="167.487" gradientUnits="userSpaceOnUse">
<stop stop-color="#3A8EF6"/>
<stop offset="1" stop-color="#6F3AFA"/>
</linearGradient>
</defs>
</svg>
