<svg width="78" height="78" viewBox="0 0 78 78" fill="none" xmlns="http://www.w3.org/2000/svg">
<circle cx="39" cy="39" r="39" fill="url(#paint0_linear_26_282)"/>
<path d="M54.2701 56.4799C54.8803 57.09 55.8697 57.09 56.4799 56.4799C57.09 55.8697 57.09 54.8803 56.4799 54.2701L54.2701 56.4799ZM35.6875 48.1875C28.7839 48.1875 23.1875 42.5911 23.1875 35.6875H20.0625C20.0625 44.3169 27.0581 51.3125 35.6875 51.3125V48.1875ZM23.1875 35.6875C23.1875 28.7839 28.7839 23.1875 35.6875 23.1875V20.0625C27.0581 20.0625 20.0625 27.0581 20.0625 35.6875H23.1875ZM35.6875 23.1875C42.5911 23.1875 48.1875 28.7839 48.1875 35.6875H51.3125C51.3125 27.0581 44.3169 20.0625 35.6875 20.0625V23.1875ZM56.4799 54.2701L46.736 44.5263L44.5263 46.736L54.2701 56.4799L56.4799 54.2701ZM48.1875 35.6875C48.1875 39.1397 46.7901 42.2626 44.5263 44.5263L46.736 46.736C49.5619 43.9102 51.3125 40.0018 51.3125 35.6875H48.1875ZM44.5263 44.5263C42.2626 46.7901 39.1397 48.1875 35.6875 48.1875V51.3125C40.0018 51.3125 43.9102 49.5619 46.736 46.736L44.5263 44.5263Z" fill="white"/>
<defs>
<linearGradient id="paint0_linear_26_282" x1="-6.07186" y1="-30.5882" x2="171.205" y2="-11.5153" gradientUnits="userSpaceOnUse">
<stop stop-color="#3A8EF6"/>
<stop offset="1" stop-color="#6F3AFA"/>
</linearGradient>
</defs>
</svg>
